<mxfile host="app.diagrams.net" modified="2022-11-07T08:36:43.072Z" agent="5.0 (Macintosh; Intel Mac OS X 10_15_7) AppleWebKit/537.36 (KHTML, like Gecko) Chrome/107.0.0.0 Safari/537.36" etag="pu6QJXRGQ49bP3AZ4Q1F" version="20.5.3" type="github">
  <diagram name="Page-1" id="13e1069c-82ec-6db2-03f1-153e76fe0fe0">
    <mxGraphModel dx="946" dy="504" grid="1" gridSize="10" guides="1" tooltips="1" connect="1" arrows="1" fold="1" page="1" pageScale="1" pageWidth="1100" pageHeight="850" background="none" math="0" shadow="0">
      <root>
        <mxCell id="0" />
        <mxCell id="1" parent="0" />
        <mxCell id="7baba1c4bc27f4b0-2" value="商家客户端" style="shape=umlLifeline;perimeter=lifelinePerimeter;whiteSpace=wrap;html=1;container=0;collapsible=0;recursiveResize=0;outlineConnect=0;rounded=1;shadow=0;comic=0;labelBackgroundColor=none;strokeWidth=1;fontFamily=Verdana;fontSize=12;align=center;movable=1;resizable=1;rotatable=1;deletable=1;editable=1;connectable=1;" parent="1" vertex="1">
          <mxGeometry x="240" y="80" width="100" height="580" as="geometry" />
        </mxCell>
        <mxCell id="7baba1c4bc27f4b0-3" value="商家服务端" style="shape=umlLifeline;perimeter=lifelinePerimeter;whiteSpace=wrap;html=1;container=0;collapsible=0;recursiveResize=0;outlineConnect=0;rounded=1;shadow=0;comic=0;labelBackgroundColor=none;strokeWidth=1;fontFamily=Verdana;fontSize=12;align=center;movable=1;resizable=1;rotatable=1;deletable=1;editable=1;connectable=1;" parent="1" vertex="1">
          <mxGeometry x="400" y="80" width="100" height="580" as="geometry" />
        </mxCell>
        <mxCell id="5JG0KDtT1o3uyb9HSPic-41" style="edgeStyle=none;rounded=0;orthogonalLoop=1;jettySize=auto;html=1;entryX=1;entryY=0.007;entryDx=0;entryDy=0;entryPerimeter=0;endArrow=classic;endFill=1;" edge="1" parent="1" source="7baba1c4bc27f4b0-4" target="5JG0KDtT1o3uyb9HSPic-40">
          <mxGeometry relative="1" as="geometry" />
        </mxCell>
        <mxCell id="5JG0KDtT1o3uyb9HSPic-42" value="异步推送签约结果" style="edgeLabel;html=1;align=center;verticalAlign=middle;resizable=0;points=[];" vertex="1" connectable="0" parent="5JG0KDtT1o3uyb9HSPic-41">
          <mxGeometry x="0.3457" y="1" relative="1" as="geometry">
            <mxPoint x="21" y="-11" as="offset" />
          </mxGeometry>
        </mxCell>
        <mxCell id="7baba1c4bc27f4b0-4" value="支付侧服务端" style="shape=umlLifeline;perimeter=lifelinePerimeter;whiteSpace=wrap;html=1;container=0;collapsible=0;recursiveResize=0;outlineConnect=0;rounded=1;shadow=0;comic=0;labelBackgroundColor=none;strokeWidth=1;fontFamily=Verdana;fontSize=12;align=center;movable=1;resizable=1;rotatable=1;deletable=1;editable=1;connectable=1;" parent="1" vertex="1">
          <mxGeometry x="540" y="80" width="100" height="580" as="geometry" />
        </mxCell>
        <mxCell id="7baba1c4bc27f4b0-5" value="支付侧客户端" style="shape=umlLifeline;perimeter=lifelinePerimeter;whiteSpace=wrap;html=1;container=0;collapsible=0;recursiveResize=0;outlineConnect=0;rounded=1;shadow=0;comic=0;labelBackgroundColor=none;strokeWidth=1;fontFamily=Verdana;fontSize=12;align=center;movable=1;resizable=1;rotatable=1;deletable=1;editable=1;connectable=1;" parent="1" vertex="1">
          <mxGeometry x="680" y="80" width="100" height="580" as="geometry" />
        </mxCell>
        <mxCell id="7baba1c4bc27f4b0-22" value="" style="html=1;points=[];perimeter=orthogonalPerimeter;rounded=0;shadow=0;comic=0;labelBackgroundColor=none;strokeWidth=1;fontFamily=Verdana;fontSize=12;align=center;container=0;movable=1;resizable=1;rotatable=1;deletable=1;editable=1;connectable=1;" parent="1" vertex="1">
          <mxGeometry x="585" y="460" width="10" height="40" as="geometry" />
        </mxCell>
        <mxCell id="7baba1c4bc27f4b0-34" value="" style="html=1;points=[];perimeter=orthogonalPerimeter;rounded=0;shadow=0;comic=0;labelBackgroundColor=none;strokeWidth=1;fontFamily=Verdana;fontSize=12;align=center;container=0;movable=1;resizable=1;rotatable=1;deletable=1;editable=1;connectable=1;" parent="1" vertex="1">
          <mxGeometry x="445" y="650" width="10" height="70" as="geometry" />
        </mxCell>
        <mxCell id="7baba1c4bc27f4b0-37" value="" style="html=1;points=[];perimeter=orthogonalPerimeter;rounded=0;shadow=0;comic=0;labelBackgroundColor=none;strokeWidth=1;fontFamily=Verdana;fontSize=12;align=center;container=0;movable=1;resizable=1;rotatable=1;deletable=1;editable=1;connectable=1;" parent="1" vertex="1">
          <mxGeometry x="585" y="390" width="10" height="20" as="geometry" />
        </mxCell>
        <mxCell id="5JG0KDtT1o3uyb9HSPic-38" style="edgeStyle=none;rounded=0;orthogonalLoop=1;jettySize=auto;html=1;entryX=0.4;entryY=1.002;entryDx=0;entryDy=0;entryPerimeter=0;endArrow=classic;endFill=1;" edge="1" parent="1" source="7baba1c4bc27f4b0-9" target="7baba1c4bc27f4b0-19">
          <mxGeometry relative="1" as="geometry" />
        </mxCell>
        <mxCell id="5JG0KDtT1o3uyb9HSPic-39" value="确认签约" style="edgeLabel;html=1;align=center;verticalAlign=middle;resizable=0;points=[];" vertex="1" connectable="0" parent="5JG0KDtT1o3uyb9HSPic-38">
          <mxGeometry x="-0.8049" y="-1" relative="1" as="geometry">
            <mxPoint y="-11" as="offset" />
          </mxGeometry>
        </mxCell>
        <mxCell id="7baba1c4bc27f4b0-9" value="" style="html=1;points=[];perimeter=orthogonalPerimeter;rounded=0;shadow=0;comic=0;labelBackgroundColor=none;strokeWidth=1;fontFamily=Verdana;fontSize=12;align=center;container=0;movable=1;resizable=1;rotatable=1;deletable=1;editable=1;connectable=1;" parent="1" vertex="1">
          <mxGeometry x="145" y="180" width="10" height="370" as="geometry" />
        </mxCell>
        <mxCell id="5JG0KDtT1o3uyb9HSPic-24" style="edgeStyle=none;rounded=0;orthogonalLoop=1;jettySize=auto;html=1;dashed=1;endArrow=classic;endFill=1;" edge="1" parent="1" source="7baba1c4bc27f4b0-37" target="7baba1c4bc27f4b0-3">
          <mxGeometry relative="1" as="geometry">
            <mxPoint x="460" y="420" as="targetPoint" />
            <Array as="points">
              <mxPoint x="470" y="410" />
            </Array>
          </mxGeometry>
        </mxCell>
        <mxCell id="5JG0KDtT1o3uyb9HSPic-25" value="返回签约请求字符串" style="edgeLabel;html=1;align=center;verticalAlign=middle;resizable=0;points=[];container=0;" vertex="1" connectable="0" parent="5JG0KDtT1o3uyb9HSPic-24">
          <mxGeometry x="0.0394" y="2" relative="1" as="geometry">
            <mxPoint x="1" y="-14" as="offset" />
          </mxGeometry>
        </mxCell>
        <mxCell id="5JG0KDtT1o3uyb9HSPic-5" style="rounded=0;orthogonalLoop=1;jettySize=auto;html=1;dashed=1;endArrow=none;endFill=0;movable=1;resizable=1;rotatable=1;deletable=1;editable=1;connectable=1;" edge="1" parent="1" source="5JG0KDtT1o3uyb9HSPic-2" target="7baba1c4bc27f4b0-9">
          <mxGeometry relative="1" as="geometry" />
        </mxCell>
        <mxCell id="5JG0KDtT1o3uyb9HSPic-2" value="Actor" style="shape=umlActor;verticalLabelPosition=bottom;verticalAlign=top;html=1;outlineConnect=0;container=0;movable=1;resizable=1;rotatable=1;deletable=1;editable=1;connectable=1;" vertex="1" parent="1">
          <mxGeometry x="135" y="60" width="30" height="60" as="geometry" />
        </mxCell>
        <mxCell id="5JG0KDtT1o3uyb9HSPic-8" value="用支付侧客户端扫码" style="html=1;verticalAlign=bottom;endArrow=block;labelBackgroundColor=none;fontFamily=Verdana;fontSize=12;movable=1;resizable=1;rotatable=1;deletable=1;editable=1;connectable=1;" edge="1" parent="1">
          <mxGeometry x="-0.7876" relative="1" as="geometry">
            <mxPoint x="160" y="310" as="sourcePoint" />
            <mxPoint x="725" y="310" as="targetPoint" />
            <mxPoint as="offset" />
          </mxGeometry>
        </mxCell>
        <mxCell id="5JG0KDtT1o3uyb9HSPic-28" style="edgeStyle=none;rounded=0;orthogonalLoop=1;jettySize=auto;html=1;endArrow=classic;endFill=1;entryX=0.9;entryY=0.013;entryDx=0;entryDy=0;entryPerimeter=0;" edge="1" parent="1" source="7baba1c4bc27f4b0-19" target="7baba1c4bc27f4b0-22">
          <mxGeometry relative="1" as="geometry">
            <mxPoint x="600" y="460" as="targetPoint" />
          </mxGeometry>
        </mxCell>
        <mxCell id="5JG0KDtT1o3uyb9HSPic-29" value="请求签约" style="edgeLabel;html=1;align=center;verticalAlign=middle;resizable=0;points=[];container=0;" vertex="1" connectable="0" parent="5JG0KDtT1o3uyb9HSPic-28">
          <mxGeometry x="0.1756" relative="1" as="geometry">
            <mxPoint x="12" y="-11" as="offset" />
          </mxGeometry>
        </mxCell>
        <mxCell id="5JG0KDtT1o3uyb9HSPic-33" value="" style="edgeStyle=none;rounded=0;orthogonalLoop=1;jettySize=auto;html=1;dashed=1;endArrow=classic;endFill=1;" edge="1" parent="1" source="7baba1c4bc27f4b0-19">
          <mxGeometry relative="1" as="geometry">
            <mxPoint x="160" y="520" as="targetPoint" />
            <Array as="points">
              <mxPoint x="570" y="521" />
              <mxPoint x="500" y="520" />
            </Array>
          </mxGeometry>
        </mxCell>
        <mxCell id="5JG0KDtT1o3uyb9HSPic-34" value="展示签约页面" style="edgeLabel;html=1;align=center;verticalAlign=middle;resizable=0;points=[];container=0;" vertex="1" connectable="0" parent="5JG0KDtT1o3uyb9HSPic-33">
          <mxGeometry x="0.7158" y="-3" relative="1" as="geometry">
            <mxPoint x="-26" y="-8" as="offset" />
          </mxGeometry>
        </mxCell>
        <mxCell id="7baba1c4bc27f4b0-19" value="" style="html=1;points=[];perimeter=orthogonalPerimeter;rounded=0;shadow=0;comic=0;labelBackgroundColor=none;strokeWidth=1;fontFamily=Verdana;fontSize=12;align=center;movable=1;resizable=1;rotatable=1;deletable=1;editable=1;connectable=1;container=0;" parent="1" vertex="1">
          <mxGeometry x="725" y="307.9" width="10" height="242.1" as="geometry" />
        </mxCell>
        <mxCell id="5JG0KDtT1o3uyb9HSPic-31" style="edgeStyle=none;rounded=0;orthogonalLoop=1;jettySize=auto;html=1;entryX=0.5;entryY=0.793;entryDx=0;entryDy=0;entryPerimeter=0;dashed=1;endArrow=classic;endFill=1;" edge="1" parent="1" source="7baba1c4bc27f4b0-22" target="7baba1c4bc27f4b0-19">
          <mxGeometry relative="1" as="geometry" />
        </mxCell>
        <mxCell id="5JG0KDtT1o3uyb9HSPic-32" value="展示签约页面" style="edgeLabel;html=1;align=center;verticalAlign=middle;resizable=0;points=[];container=0;" vertex="1" connectable="0" parent="5JG0KDtT1o3uyb9HSPic-31">
          <mxGeometry x="0.4227" y="-2" relative="1" as="geometry">
            <mxPoint x="-28" y="-15" as="offset" />
          </mxGeometry>
        </mxCell>
        <mxCell id="7baba1c4bc27f4b0-10" value="" style="html=1;points=[];perimeter=orthogonalPerimeter;rounded=0;shadow=0;comic=0;labelBackgroundColor=none;strokeWidth=1;fontFamily=Verdana;fontSize=12;align=center;container=0;movable=1;resizable=1;rotatable=1;deletable=1;editable=1;connectable=1;" parent="1" vertex="1">
          <mxGeometry x="285" y="180" width="10" height="130" as="geometry" />
        </mxCell>
        <mxCell id="7baba1c4bc27f4b0-11" value="购买会员，周期扣款" style="html=1;verticalAlign=bottom;endArrow=block;entryX=0;entryY=0;labelBackgroundColor=none;fontFamily=Verdana;fontSize=12;edgeStyle=elbowEdgeStyle;elbow=vertical;movable=1;resizable=1;rotatable=1;deletable=1;editable=1;connectable=1;" parent="1" source="7baba1c4bc27f4b0-9" target="7baba1c4bc27f4b0-10" edge="1">
          <mxGeometry relative="1" as="geometry">
            <mxPoint x="220" y="190" as="sourcePoint" />
          </mxGeometry>
        </mxCell>
        <mxCell id="5JG0KDtT1o3uyb9HSPic-6" value="返回token" style="html=1;verticalAlign=bottom;endArrow=open;dashed=1;endSize=8;labelBackgroundColor=none;fontFamily=Verdana;fontSize=12;edgeStyle=elbowEdgeStyle;elbow=horizontal;movable=1;resizable=1;rotatable=1;deletable=1;editable=1;connectable=1;" edge="1" parent="1" source="7baba1c4bc27f4b0-3">
          <mxGeometry relative="1" as="geometry">
            <mxPoint x="295" y="220" as="targetPoint" />
            <Array as="points">
              <mxPoint x="370" y="220" />
              <mxPoint x="400" y="220" />
            </Array>
            <mxPoint x="425" y="220" as="sourcePoint" />
          </mxGeometry>
        </mxCell>
        <mxCell id="5JG0KDtT1o3uyb9HSPic-7" value="根据 token 生成二维码" style="html=1;verticalAlign=bottom;endArrow=block;labelBackgroundColor=none;fontFamily=Verdana;fontSize=12;elbow=vertical;edgeStyle=orthogonalEdgeStyle;curved=1;exitX=1.038;exitY=0.345;exitPerimeter=0;movable=1;resizable=1;rotatable=1;deletable=1;editable=1;connectable=1;" edge="1" parent="1">
          <mxGeometry x="0.2" y="-30" relative="1" as="geometry">
            <mxPoint x="295.0000000000001" y="240.00000000000003" as="sourcePoint" />
            <mxPoint x="300" y="260" as="targetPoint" />
            <Array as="points">
              <mxPoint x="350" y="240" />
              <mxPoint x="350" y="260" />
              <mxPoint x="300" y="260" />
            </Array>
            <mxPoint x="30" y="30" as="offset" />
          </mxGeometry>
        </mxCell>
        <mxCell id="7baba1c4bc27f4b0-13" value="" style="html=1;points=[];perimeter=orthogonalPerimeter;rounded=0;shadow=0;comic=0;labelBackgroundColor=none;strokeWidth=1;fontFamily=Verdana;fontSize=12;align=center;container=0;movable=1;resizable=1;rotatable=1;deletable=1;editable=1;connectable=1;" parent="1" vertex="1">
          <mxGeometry x="445" y="200" width="10" height="20" as="geometry" />
        </mxCell>
        <mxCell id="7baba1c4bc27f4b0-14" value="获取生成二维码的token" style="html=1;verticalAlign=bottom;endArrow=block;entryX=0;entryY=0;labelBackgroundColor=none;fontFamily=Verdana;fontSize=12;edgeStyle=elbowEdgeStyle;elbow=vertical;movable=1;resizable=1;rotatable=1;deletable=1;editable=1;connectable=1;" parent="1" source="7baba1c4bc27f4b0-10" target="7baba1c4bc27f4b0-13" edge="1">
          <mxGeometry relative="1" as="geometry">
            <mxPoint x="370" y="200" as="sourcePoint" />
          </mxGeometry>
        </mxCell>
        <mxCell id="5JG0KDtT1o3uyb9HSPic-20" value="" style="edgeStyle=none;rounded=0;orthogonalLoop=1;jettySize=auto;html=1;endArrow=classic;endFill=1;" edge="1" parent="1" source="5JG0KDtT1o3uyb9HSPic-12" target="7baba1c4bc27f4b0-4">
          <mxGeometry relative="1" as="geometry">
            <Array as="points">
              <mxPoint x="490" y="390" />
            </Array>
          </mxGeometry>
        </mxCell>
        <mxCell id="5JG0KDtT1o3uyb9HSPic-21" value="调用签约接口 sign" style="edgeLabel;html=1;align=center;verticalAlign=middle;resizable=0;points=[];container=0;" vertex="1" connectable="0" parent="5JG0KDtT1o3uyb9HSPic-20">
          <mxGeometry x="-0.2565" y="5" relative="1" as="geometry">
            <mxPoint x="15" y="-7" as="offset" />
          </mxGeometry>
        </mxCell>
        <mxCell id="5JG0KDtT1o3uyb9HSPic-12" value="" style="html=1;points=[];perimeter=orthogonalPerimeter;container=0;" vertex="1" parent="1">
          <mxGeometry x="445" y="340" width="10" height="100" as="geometry" />
        </mxCell>
        <mxCell id="5JG0KDtT1o3uyb9HSPic-26" style="edgeStyle=none;rounded=0;orthogonalLoop=1;jettySize=auto;html=1;dashed=1;endArrow=classic;endFill=1;" edge="1" parent="1" source="5JG0KDtT1o3uyb9HSPic-12">
          <mxGeometry relative="1" as="geometry">
            <mxPoint x="720" y="440" as="targetPoint" />
          </mxGeometry>
        </mxCell>
        <mxCell id="5JG0KDtT1o3uyb9HSPic-27" value="返回签约请求字符串" style="edgeLabel;html=1;align=center;verticalAlign=middle;resizable=0;points=[];container=0;" vertex="1" connectable="0" parent="5JG0KDtT1o3uyb9HSPic-26">
          <mxGeometry x="-0.6679" y="-3" relative="1" as="geometry">
            <mxPoint x="20" y="-11" as="offset" />
          </mxGeometry>
        </mxCell>
        <mxCell id="5JG0KDtT1o3uyb9HSPic-13" style="edgeStyle=none;rounded=0;orthogonalLoop=1;jettySize=auto;html=1;endArrow=classic;endFill=1;entryX=1;entryY=-0.012;entryDx=0;entryDy=0;entryPerimeter=0;" edge="1" parent="1" source="7baba1c4bc27f4b0-19" target="5JG0KDtT1o3uyb9HSPic-12">
          <mxGeometry relative="1" as="geometry">
            <Array as="points">
              <mxPoint x="630" y="340" />
            </Array>
          </mxGeometry>
        </mxCell>
        <mxCell id="5JG0KDtT1o3uyb9HSPic-15" value="调用签约接口" style="edgeLabel;html=1;align=center;verticalAlign=middle;resizable=0;points=[];container=0;" vertex="1" connectable="0" parent="5JG0KDtT1o3uyb9HSPic-13">
          <mxGeometry x="0.0817" y="2" relative="1" as="geometry">
            <mxPoint x="91" y="-12" as="offset" />
          </mxGeometry>
        </mxCell>
        <mxCell id="5JG0KDtT1o3uyb9HSPic-43" style="edgeStyle=none;rounded=0;orthogonalLoop=1;jettySize=auto;html=1;entryX=0.51;entryY=0.901;entryDx=0;entryDy=0;entryPerimeter=0;endArrow=classic;endFill=1;dashed=1;" edge="1" parent="1" source="5JG0KDtT1o3uyb9HSPic-40" target="7baba1c4bc27f4b0-4">
          <mxGeometry relative="1" as="geometry">
            <Array as="points">
              <mxPoint x="500" y="603" />
            </Array>
          </mxGeometry>
        </mxCell>
        <mxCell id="5JG0KDtT1o3uyb9HSPic-44" value="返回 success" style="edgeLabel;html=1;align=center;verticalAlign=middle;resizable=0;points=[];" vertex="1" connectable="0" parent="5JG0KDtT1o3uyb9HSPic-43">
          <mxGeometry x="-0.4118" relative="1" as="geometry">
            <mxPoint x="25" y="-3" as="offset" />
          </mxGeometry>
        </mxCell>
        <mxCell id="5JG0KDtT1o3uyb9HSPic-40" value="" style="html=1;points=[];perimeter=orthogonalPerimeter;rounded=0;shadow=0;comic=0;labelBackgroundColor=none;strokeWidth=1;fontFamily=Verdana;fontSize=12;align=center;container=0;movable=1;resizable=1;rotatable=1;deletable=1;editable=1;connectable=1;" vertex="1" parent="1">
          <mxGeometry x="445" y="580" width="10" height="30" as="geometry" />
        </mxCell>
        <mxCell id="5JG0KDtT1o3uyb9HSPic-46" value="存储签约结果" style="endArrow=classic;html=1;rounded=0;exitX=0.51;exitY=0.959;exitDx=0;exitDy=0;exitPerimeter=0;endFill=1;" edge="1" parent="1" source="7baba1c4bc27f4b0-3">
          <mxGeometry x="0.115" y="40" width="50" height="50" relative="1" as="geometry">
            <mxPoint x="520" y="510" as="sourcePoint" />
            <mxPoint x="460" y="680" as="targetPoint" />
            <Array as="points">
              <mxPoint x="490" y="636" />
              <mxPoint x="490" y="680" />
            </Array>
            <mxPoint as="offset" />
          </mxGeometry>
        </mxCell>
      </root>
    </mxGraphModel>
  </diagram>
</mxfile>
